<svg viewBox="0 0 16 16" xmlns="http://www.w3.org/2000/svg" fill-rule="evenodd" clip-rule="evenodd" stroke-linejoin="round" stroke-miterlimit="1.414"><path d="M14.154 16H1.846A1.846 1.846 0 0 1 0 14.153V1.846C0 .826.826 0 1.846 0h12.308C15.174 0 16 .826 16 1.846v12.307c0 1.02-.826 1.847-1.846 1.847M8 4.923a3.076 3.076 0 1 0 0 6.154 3.076 3.076 0 1 0 0-6.154m6.154-2.462a.614.614 0 0 0-.616-.614h-1.846a.615.615 0 0 0-.615.615V4.31c0 .34.276.615.615.615h1.846c.34 0 .616-.276.616-.615V2.46zm0 4.31H12.76c.103.392.163.804.163 1.23A4.922 4.922 0 0 1 8 12.924a4.922 4.922 0 0 1-4.923-4.923c0-.426.06-.838.162-1.23H1.845v6.768c0 .34.275.615.616.615h11.076c.34 0 .616-.275.616-.615v-6.77z"/></svg>