<svg display="none"><symbol id="icon-facebook" viewBox="0 0 16 16"><path d="M15.117 0H.883A.883.883 0 0 0 0 .883v14.234c0 .488.395.883.883.883h7.663V9.804H6.46V7.39h2.086V5.607c0-2.066 1.262-3.19 3.106-3.19.883 0 1.642.064 1.863.094v2.16h-1.28c-1 0-1.195.476-1.195 1.176v1.54h2.39l-.31 2.416h-2.08V16h4.077a.883.883 0 0 0 .883-.883V.883A.883.883 0 0 0 15.117 0"/></symbol><symbol id="icon-googleplus" viewBox="0 0 16 16"><path d="M5.09 7.273v1.745h2.89c-.116.75-.873 2.197-2.887 2.197-1.737 0-3.155-1.44-3.155-3.215S3.353 4.785 5.09 4.785c.99 0 1.652.422 2.03.786l1.382-1.33c-.887-.83-2.037-1.33-3.41-1.33C2.275 2.91 0 5.184 0 8s2.276 5.09 5.09 5.09c2.94 0 4.888-2.065 4.888-4.974 0-.334-.036-.59-.08-.843H5.09zm10.91 0h-1.455V5.818H13.09v1.455h-1.454v1.454h1.455v1.455h1.455V8.727H16"/></symbol><symbol id="icon-instagram" viewBox="0 0 16 16"><path d="M14.154 16H1.846A1.846 1.846 0 0 1 0 14.153V1.846C0 .826.826 0 1.846 0h12.308C15.174 0 16 .826 16 1.846v12.307c0 1.02-.826 1.847-1.846 1.847M8 4.923a3.076 3.076 0 1 0 0 6.154 3.076 3.076 0 1 0 0-6.154m6.154-2.462a.614.614 0 0 0-.616-.614h-1.846a.615.615 0 0 0-.615.615V4.31c0 .34.276.615.615.615h1.846c.34 0 .616-.276.616-.615V2.46zm0 4.31H12.76c.103.392.163.804.163 1.23A4.922 4.922 0 0 1 8 12.924a4.922 4.922 0 0 1-4.923-4.923c0-.426.06-.838.162-1.23H1.845v6.768c0 .34.275.615.616.615h11.076c.34 0 .616-.275.616-.615v-6.77z"/></symbol><symbol id="icon-twitter" viewBox="0 0 16 16"><path d="M16 3.038a6.62 6.62 0 0 1-1.885.517 3.299 3.299 0 0 0 1.443-1.816 6.59 6.59 0 0 1-2.085.795 3.273 3.273 0 0 0-2.396-1.036 3.281 3.281 0 0 0-3.197 4.03A9.329 9.329 0 0 1 1.114 2.1 3.243 3.243 0 0 0 .67 3.75c0 1.14.58 2.143 1.46 2.732a3.278 3.278 0 0 1-1.487-.41v.04c0 1.59 1.13 2.918 2.633 3.22a3.336 3.336 0 0 1-1.482.056 3.287 3.287 0 0 0 3.067 2.28 6.592 6.592 0 0 1-4.077 1.404c-.265 0-.526-.015-.783-.045a9.303 9.303 0 0 0 5.032 1.474c6.038 0 9.34-5 9.34-9.338 0-.143-.004-.284-.01-.425a6.67 6.67 0 0 0 1.638-1.7z"/></symbol></svg>